# xmcd
#
# Track frame offsets:
#	150
#	16545
#	31853
#	50163
#	62220
#	83588
#	98467
#	115172
#	135948
#	156711
#	174863
#	186162
#
# Disc length: 2670 seconds
# Revision: 2
# Processed by: cddbd v1.5.2PL0 Copyright (c) Steve Scherf et al.
# Submitted via: dBpowerAMP V12.0
#
DISCID=8b0a6c0c
DTITLE=Dave Stamey - Twelve Mile Road
DYEAR=2011
DGENRE=Country
TTITLE0=Twelve Mile Road
TTITLE1=Blackjack Was a Mule
TTITLE2=Buckskin Horse
TTITLE3=All I Need Is You
TTITLE4=Song for Jake
TTITLE5=If I Had Money
TTITLE6=Never Gonna Rain
TTITLE7=Sage In Her Hair
TTITLE8=Bubba and the Goat
TTITLE9=Wild Sierra
TTITLE10=Comfortable Shoes
TTITLE11=Sweet Grass County Line
EXTD=
EXTT0=
EXTT1=
EXTT2=
EXTT3=
EXTT4=
EXTT5=
EXTT6=
EXTT7=
EXTT8=
EXTT9=
EXTT10=
EXTT11=
PLAYORDER=
